<svg width="908" height="440" viewBox="0 0 908 440" fill="none" xmlns="http://www.w3.org/2000/svg">
<path d="M85.7402 200.393C34.1148 214.082 12.5148 248.805 4.84378 292.682C-0.736665 324.601 -8.067 355.934 24.9711 373.593C63.206 394.029 88.1109 342.841 133.349 337.562C185.492 331.478 228.54 382.535 266.886 353.049C311.93 318.413 259.899 264.4 213.084 231.367C173.823 203.663 135.094 187.307 85.7402 200.393Z" fill="url(#paint0_linear_8_106)"/>
<ellipse cx="142.077" cy="365.597" rx="22.6769" ry="21.6095" fill="url(#paint1_linear_8_106)"/>
<ellipse cx="503.519" cy="49.3932" rx="22.2141" ry="21.1685" fill="url(#paint2_linear_8_106)"/>
<ellipse cx="709.925" cy="212.126" rx="22.2141" ry="21.6095" fill="url(#paint3_linear_8_106)"/>
<path d="M82.1445 305.44C76.4645 305.44 72.0645 301.36 72.0645 295.16C72.0645 288.92 73.1845 285.56 79.5445 282.44C83.9045 280.36 87.4245 279.84 87.9845 276.44L89.5845 277.36C88.9045 281.2 84.7045 282.16 80.6245 284.04C76.7045 285.8 75.0645 287.6 74.4245 291.12C76.4245 288 79.8245 286.76 82.5845 286.76C87.8645 286.76 91.8645 290.64 91.8645 296.12C91.8645 301.48 87.7845 305.44 82.1445 305.44ZM82.1445 303.44C86.6645 303.44 89.8245 300.36 89.8245 296.12C89.8245 291.84 86.7845 288.72 82.3445 288.72C78.4645 288.72 74.5445 291.36 74.2245 295.6C74.2245 300.2 77.5845 303.44 82.1445 303.44ZM104.196 292.72C107.756 292.72 110.796 295.16 110.796 298.84C110.796 302.52 107.756 304.96 104.196 304.96H96.2761V284.96H98.2761V292.72H104.196ZM113.876 284.96H115.876V304.96H113.876V284.96ZM104.196 303C106.716 303 108.756 301.36 108.756 298.84C108.756 296.28 106.716 294.68 104.196 294.68H98.2761V303H104.196ZM131.178 305.4C125.138 305.4 120.658 300.88 120.658 294.96C120.658 289.04 125.138 284.52 131.178 284.52C135.098 284.52 138.458 286.52 139.898 289.64L138.258 290.6C137.098 288.08 134.378 286.44 131.178 286.44C126.338 286.44 122.698 290.2 122.698 294.96C122.698 299.72 126.338 303.48 131.178 303.48C134.418 303.48 137.058 301.8 138.378 299.32L140.058 300.32C138.458 303.4 135.098 305.4 131.178 305.4ZM158.05 284.96V286.92H150.77V304.96H148.77V286.92H141.49V284.96H158.05ZM172.267 284.52C177.987 284.52 182.627 289.04 182.627 294.96C182.627 300.88 177.987 305.4 172.267 305.4C168.387 305.4 165.307 303.4 163.667 300.32V312.96H161.667V284.96H163.667V289.6C165.307 286.52 168.387 284.52 172.267 284.52ZM172.147 303.48C176.907 303.48 180.627 299.72 180.627 294.96C180.627 290.2 176.907 286.44 172.147 286.44C167.387 286.44 163.667 290.2 163.667 294.96C163.667 299.72 167.387 303.48 172.147 303.48ZM196.608 305.4C190.768 305.4 186.088 300.88 186.088 294.96C186.088 289.04 190.768 284.52 196.608 284.52C202.408 284.52 207.088 289.04 207.088 294.96C207.088 300.88 202.408 305.4 196.608 305.4ZM196.608 303.48C201.368 303.48 205.048 299.72 205.048 294.96C205.048 290.2 201.368 286.44 196.608 286.44C191.848 286.44 188.128 290.2 188.128 294.96C188.128 299.72 191.848 303.48 196.608 303.48Z" fill="white"/>
<path d="M301.996 51.366C264.17 76.8787 260.565 107.369 279.932 140.269C309.564 190.609 412.004 217.578 482.103 187.837C534.487 165.613 554.187 129.104 535.468 90.7326C520.447 59.9408 473.893 105.823 442.592 33.3229C411.292 -39.1775 340.522 25.3813 301.996 51.366Z" fill="url(#paint4_linear_8_106)"/>
<path d="M357.439 112.966V132.966H355.399V114.926H342.919V132.966H340.919V112.966H357.439ZM374.214 112.526C379.934 112.526 384.574 117.046 384.574 122.966C384.574 128.886 379.934 133.406 374.214 133.406C370.334 133.406 367.254 131.406 365.614 128.326V140.966H363.614V112.966H365.614V117.606C367.254 114.526 370.334 112.526 374.214 112.526ZM374.094 131.486C378.854 131.486 382.574 127.726 382.574 122.966C382.574 118.206 378.854 114.446 374.094 114.446C369.334 114.446 365.614 118.206 365.614 122.966C365.614 127.726 369.334 131.486 374.094 131.486ZM398.555 133.406C392.715 133.406 388.035 128.886 388.035 122.966C388.035 117.046 392.715 112.526 398.555 112.526C404.355 112.526 409.035 117.046 409.035 122.966C409.035 128.886 404.355 133.406 398.555 133.406ZM398.555 131.486C403.315 131.486 406.995 127.726 406.995 122.966C406.995 118.206 403.315 114.446 398.555 114.446C393.795 114.446 390.075 118.206 390.075 122.966C390.075 127.726 393.795 131.486 398.555 131.486ZM423.009 133.406C416.969 133.406 412.489 128.886 412.489 122.966C412.489 117.046 416.969 112.526 423.009 112.526C426.929 112.526 430.289 114.526 431.729 117.646L430.089 118.606C428.929 116.086 426.209 114.446 423.009 114.446C418.169 114.446 414.529 118.206 414.529 122.966C414.529 127.726 418.169 131.486 423.009 131.486C426.249 131.486 428.889 129.806 430.209 127.326L431.889 128.326C430.289 131.406 426.929 133.406 423.009 133.406ZM449.88 112.966V114.926H442.6V132.966H440.6V114.926H433.32V112.966H449.88ZM461.876 133.406C456.036 133.406 451.356 128.886 451.356 122.966C451.356 117.046 456.036 112.526 461.876 112.526C467.676 112.526 472.356 117.046 472.356 122.966C472.356 128.886 467.676 133.406 461.876 133.406ZM461.876 131.486C466.636 131.486 470.316 127.726 470.316 122.966C470.316 118.206 466.636 114.446 461.876 114.446C457.116 114.446 453.396 118.206 453.396 122.966C453.396 127.726 457.116 131.486 461.876 131.486Z" fill="white"/>
<path d="M624.948 351.931C665.95 391.698 723.047 401.715 782.289 368.201C815.646 349.33 836.085 330.673 850.045 296.492C866.069 257.259 870.764 218.321 839.761 197.595C800.618 171.427 764.351 256.425 712.543 259.226C662.061 261.956 648.025 185.046 601.681 213.235C547.883 245.958 587.107 315.229 624.948 351.931Z" fill="url(#paint5_linear_8_106)"/>
<path d="M624.659 317.666H621.939L611.339 307.826V317.666H609.339V297.666H611.339V306.746L621.459 297.666H624.259L613.499 307.266L624.659 317.666ZM644.283 297.666H646.323V317.666H644.283V313.146C642.603 316.146 639.523 318.106 635.683 318.106C630.003 318.106 625.323 313.586 625.323 307.666C625.323 301.746 630.003 297.226 635.683 297.226C639.523 297.226 642.603 299.186 644.283 302.186V297.666ZM635.843 316.186C640.603 316.186 644.283 312.426 644.283 307.666C644.283 302.906 640.603 299.146 635.843 299.146C631.083 299.146 627.363 302.906 627.363 307.666C627.363 312.426 631.083 316.186 635.843 316.186ZM665.744 297.666H667.784V317.666H665.744V309.826C663.984 310.706 661.824 311.146 659.664 311.146C654.584 311.146 651.664 308.746 651.664 304.186V297.666H653.664V304.186C653.664 307.666 655.784 309.226 659.584 309.226C661.704 309.226 663.864 308.786 665.744 307.946V297.666ZM682.948 297.226C689.028 297.226 692.828 302.266 692.828 307.746C692.828 308.066 692.788 308.386 692.788 308.706H674.668C675.148 313.226 678.588 316.186 683.148 316.186C686.428 316.186 688.908 314.666 690.068 312.546L691.828 313.586C690.188 316.306 687.068 318.106 683.108 318.106C676.948 318.106 672.588 313.706 672.588 307.666C672.588 301.786 676.828 297.226 682.948 297.226ZM682.948 299.146C678.388 299.146 675.068 302.306 674.668 306.746H690.748C690.308 301.866 686.868 299.146 682.948 299.146ZM706.663 318.106C700.623 318.106 696.143 313.586 696.143 307.666C696.143 301.746 700.623 297.226 706.663 297.226C710.583 297.226 713.943 299.226 715.383 302.346L713.743 303.306C712.583 300.786 709.863 299.146 706.663 299.146C701.823 299.146 698.183 302.906 698.183 307.666C698.183 312.426 701.823 316.186 706.663 316.186C709.903 316.186 712.543 314.506 713.863 312.026L715.543 313.026C713.943 316.106 710.583 318.106 706.663 318.106ZM733.534 297.666V299.626H726.254V317.666H724.254V299.626H716.974V297.666H733.534ZM749.471 307.346C751.791 308.106 752.991 309.866 752.991 312.146C752.991 315.186 750.991 317.666 746.831 317.666H737.151V297.666H746.071C749.991 297.666 752.031 299.986 752.031 302.906C752.031 304.866 751.191 306.506 749.471 307.346ZM746.071 299.626H739.151V306.546H746.071C748.631 306.546 749.991 305.266 749.991 303.026C749.991 300.906 748.591 299.626 746.071 299.626ZM746.831 315.706C749.511 315.706 750.991 314.346 750.991 312.066C750.991 309.866 749.471 308.506 746.831 308.506H739.151V315.706H746.831ZM766.425 297.226C772.505 297.226 776.305 302.266 776.305 307.746C776.305 308.066 776.265 308.386 776.265 308.706H758.145C758.625 313.226 762.065 316.186 766.625 316.186C769.905 316.186 772.385 314.666 773.545 312.546L775.305 313.586C773.665 316.306 770.545 318.106 766.585 318.106C760.425 318.106 756.065 313.706 756.065 307.666C756.065 301.786 760.305 297.226 766.425 297.226ZM766.425 299.146C761.865 299.146 758.545 302.306 758.145 306.746H774.225C773.785 301.866 770.345 299.146 766.425 299.146ZM795.46 297.666H797.5V317.666H795.46V308.626H782.98V317.666H780.98V297.666H782.98V306.706H795.46V297.666ZM818.155 297.666H820.195V317.666H818.155V308.626H805.675V317.666H803.675V297.666H805.675V306.706H818.155V297.666ZM835.53 318.106C829.69 318.106 825.01 313.586 825.01 307.666C825.01 301.746 829.69 297.226 835.53 297.226C841.33 297.226 846.01 301.746 846.01 307.666C846.01 313.586 841.33 318.106 835.53 318.106ZM835.53 316.186C840.29 316.186 843.97 312.426 843.97 307.666C843.97 302.906 840.29 299.146 835.53 299.146C830.77 299.146 827.05 302.906 827.05 307.666C827.05 312.426 830.77 316.186 835.53 316.186Z" fill="white"/>
<defs>
<linearGradient id="paint0_linear_8_106" x1="142.077" y1="195.808" x2="142.077" y2="378.387" gradientUnits="userSpaceOnUse">
<stop stop-color="#2400FF" stop-opacity="0.58"/>
<stop offset="0.955" stop-color="#1900AE" stop-opacity="0.9811"/>
<stop offset="1" stop-color="#160099"/>
</linearGradient>
<linearGradient id="paint1_linear_8_106" x1="142.077" y1="343.988" x2="142.077" y2="387.207" gradientUnits="userSpaceOnUse">
<stop stop-color="#000AFF" stop-opacity="0.63"/>
<stop offset="1" stop-color="#00034E"/>
</linearGradient>
<linearGradient id="paint2_linear_8_106" x1="503.519" y1="28.2247" x2="503.519" y2="70.5616" gradientUnits="userSpaceOnUse">
<stop stop-color="#000AFF" stop-opacity="0.63"/>
<stop offset="1" stop-color="#00034E"/>
</linearGradient>
<linearGradient id="paint3_linear_8_106" x1="709.925" y1="190.516" x2="709.925" y2="233.735" gradientUnits="userSpaceOnUse">
<stop stop-color="#000AFF" stop-opacity="0.63"/>
<stop offset="1" stop-color="#00034E"/>
</linearGradient>
<linearGradient id="paint4_linear_8_106" x1="405.407" y1="0" x2="405.407" y2="200.219" gradientUnits="userSpaceOnUse">
<stop stop-color="#0009ED"/>
<stop offset="0.0001" stop-color="#0009EB" stop-opacity="0.9955"/>
<stop offset="1" stop-color="#000353" stop-opacity="0.55"/>
</linearGradient>
<linearGradient id="paint5_linear_8_106" x1="809.652" y1="171.222" x2="641.848" y2="366.793" gradientUnits="userSpaceOnUse">
<stop stop-color="#000AFF"/>
<stop offset="1" stop-color="#00046D" stop-opacity="0.63"/>
<stop offset="1.0001" stop-color="#00046D" stop-opacity="0.63"/>
</linearGradient>
</defs>
</svg>
